<svg xmlns="http://www.w3.org/2000/svg" xmlns:xlink="http://www.w3.org/1999/xlink" viewBox="0 0 64 64"><defs><style>.cls-1{fill:url(#linear-gradient);}.cls-2{fill:url(#linear-gradient-2);}.cls-3{fill:url(#linear-gradient-3);}.cls-4{fill:url(#linear-gradient-4);}.cls-5{fill:url(#linear-gradient-5);}.cls-6{fill:url(#linear-gradient-6);}.cls-7{fill:url(#linear-gradient-7);}.cls-8{fill:url(#linear-gradient-8);}.cls-9{fill:url(#linear-gradient-9);}.cls-10{fill:url(#linear-gradient-10);}.cls-11{fill:url(#linear-gradient-11);}</style><linearGradient id="linear-gradient" x1="6" y1="18.5" x2="35" y2="18.5" gradientTransform="matrix(-1, 0, 0, 1, 66, 0)" gradientUnits="userSpaceOnUse"><stop offset="0" stop-color="#fbcc88"/><stop offset="1" stop-color="#ffe5c3"/></linearGradient><linearGradient id="linear-gradient-2" x1="4" y1="30" x2="18" y2="30" gradientTransform="matrix(-1, 0, 0, 1, 66, 0)" gradientUnits="userSpaceOnUse"><stop offset="0" stop-color="#d4d8e1"/><stop offset="1" stop-color="#f3f4f5"/></linearGradient><linearGradient id="linear-gradient-3" x1="2" y1="48" x2="20" y2="48" gradientTransform="matrix(-1, 0, 0, 1, 66, 0)" gradientUnits="userSpaceOnUse"><stop offset="0" stop-color="#e9a254"/><stop offset="1" stop-color="#f4bb79"/></linearGradient><linearGradient id="linear-gradient-4" x1="4" y1="18.5" x2="33" y2="18.5" gradientTransform="matrix(1, 0, 0, 1, 0, 0)" xlink:href="#linear-gradient"/><linearGradient id="linear-gradient-5" x1="31" y1="35" x2="33" y2="35" gradientTransform="matrix(1, 0, 0, 1, 0, 0)" xlink:href="#linear-gradient"/><linearGradient id="linear-gradient-6" x1="28" y1="4" x2="36" y2="4" gradientTransform="matrix(1, 0, 0, 1, 0, 0)" xlink:href="#linear-gradient"/><linearGradient id="linear-gradient-7" x1="2" y1="30" x2="16" y2="30" gradientTransform="matrix(1, 0, 0, 1, 0, 0)" xlink:href="#linear-gradient-2"/><linearGradient id="linear-gradient-8" x1="0" y1="48" x2="18" y2="48" gradientTransform="matrix(1, 0, 0, 1, 0, 0)" xlink:href="#linear-gradient-3"/><linearGradient id="linear-gradient-9" x1="28" y1="8.5" x2="36" y2="8.5" gradientTransform="matrix(1, 0, 0, 1, 0, 0)" xlink:href="#linear-gradient-3"/><linearGradient id="linear-gradient-10" x1="27" y1="59" x2="37" y2="59" gradientTransform="matrix(1, 0, 0, 1, 0, 0)" xlink:href="#linear-gradient"/><linearGradient id="linear-gradient-11" x1="21" y1="62" x2="43" y2="62" gradientTransform="matrix(1, 0, 0, 1, 0, 0)" xlink:href="#linear-gradient-3"/></defs><title>Balance</title><g id="Balance"><path class="cls-1" d="M55,22a5,5,0,0,1-5-5H32a1,1,0,0,1,0-2H51a1,1,0,0,1,1,1v1a3,3,0,0,0,6,0V16a1,1,0,0,1,2,0v1A5,5,0,0,1,55,22Z"/><path class="cls-2" d="M61,44a1,1,0,0,1-1-.77L55,21.45,50,43.23a1,1,0,0,1-1.2.74,1,1,0,0,1-.75-1.2l6-26a1,1,0,0,1,1.95,0l6,26A1,1,0,0,1,61,44Z"/><path class="cls-3" d="M55,53a9,9,0,0,0,9-9,1,1,0,0,0-1-1H47a1,1,0,0,0-1,1A9,9,0,0,0,55,53Z"/><path class="cls-4" d="M9,22a5,5,0,0,1-5-5V16a1,1,0,0,1,2,0v1a3,3,0,0,0,6,0V16a1,1,0,0,1,1-1H32a1,1,0,0,1,0,2H14A5,5,0,0,1,9,22Z"/><path class="cls-5" d="M32,61a1,1,0,0,1-1-1V10a1,1,0,0,1,2,0V60A1,1,0,0,1,32,61Z"/><circle class="cls-6" cx="32" cy="4" r="4"/><path class="cls-7" d="M15,44a1,1,0,0,1-1-.77L9,21.45,4,43.23A1,1,0,0,1,2,42.77l6-26a1,1,0,0,1,1.94,0l6,26A1,1,0,0,1,15,44Z"/><path class="cls-8" d="M9,53a9,9,0,0,1-9-9,1,1,0,0,1,1-1H17a1,1,0,0,1,1,1A9,9,0,0,1,9,53Z"/><rect class="cls-9" x="28" y="7" width="8" height="3" rx="1.5"/><path class="cls-10" d="M37,60H27a2,2,0,0,1,2-2h6A2,2,0,0,1,37,60Z"/><path class="cls-11" d="M24,60H40a3,3,0,0,1,3,3v1a0,0,0,0,1,0,0H21a0,0,0,0,1,0,0V63A3,3,0,0,1,24,60Z"/></g></svg>