<svg xmlns="http://www.w3.org/2000/svg" xmlns:xlink="http://www.w3.org/1999/xlink" viewBox="0 0 64 64"><defs><style>.cls-1{fill:url(#linear-gradient);}.cls-2{fill:#cf4055;}.cls-3{fill:url(#linear-gradient-2);}.cls-4{fill:#d7f1ff;}.cls-5{fill:url(#linear-gradient-3);}.cls-6{fill:url(#linear-gradient-4);}.cls-7{fill:url(#linear-gradient-5);}.cls-8{fill:url(#linear-gradient-6);}.cls-9{fill:url(#linear-gradient-7);}.cls-10{fill:url(#linear-gradient-8);}.cls-11{fill:url(#linear-gradient-9);}.cls-12{fill:url(#linear-gradient-10);}</style><linearGradient id="linear-gradient" x1="8" y1="32" x2="48" y2="32" gradientUnits="userSpaceOnUse"><stop offset="0" stop-color="#da5466"/><stop offset="1" stop-color="#f4929c"/></linearGradient><linearGradient id="linear-gradient-2" x1="19" y1="47.5" x2="48" y2="47.5" gradientUnits="userSpaceOnUse"><stop offset="0" stop-color="#949aaf"/><stop offset="1" stop-color="#c6ccda"/></linearGradient><linearGradient id="linear-gradient-3" x1="18.01" y1="13" x2="37.99" y2="13" gradientUnits="userSpaceOnUse"><stop offset="0" stop-color="#474f72"/><stop offset="1" stop-color="#878c9f"/></linearGradient><linearGradient id="linear-gradient-4" x1="20.01" y1="18" x2="35.99" y2="18" xlink:href="#linear-gradient-3"/><linearGradient id="linear-gradient-5" x1="51" y1="33" x2="57" y2="33" gradientUnits="userSpaceOnUse"><stop offset="0" stop-color="#fbcc88"/><stop offset="1" stop-color="#ffe5c3"/></linearGradient><linearGradient id="linear-gradient-6" x1="50" y1="22" x2="64" y2="22" xlink:href="#linear-gradient-2"/><linearGradient id="linear-gradient-7" x1="51" y1="5" x2="57" y2="5" gradientUnits="userSpaceOnUse"><stop offset="0" stop-color="#e9a254"/><stop offset="1" stop-color="#f4bb79"/></linearGradient><linearGradient id="linear-gradient-8" x1="53" y1="61" x2="55" y2="61" xlink:href="#linear-gradient-3"/><linearGradient id="linear-gradient-9" x1="51" y1="58" x2="57" y2="58" gradientUnits="userSpaceOnUse"><stop offset="0" stop-color="#d4d8e1"/><stop offset="1" stop-color="#f3f4f5"/></linearGradient><linearGradient id="linear-gradient-10" x1="53" y1="32" x2="55" y2="32" xlink:href="#linear-gradient-7"/></defs><title>Book Pen</title><g id="Book_Pen" data-name="Book Pen"><path class="cls-1" d="M8,2H46a2,2,0,0,1,2,2V60a2,2,0,0,1-2,2H8a0,0,0,0,1,0,0V2A0,0,0,0,1,8,2Z"/><path class="cls-2" d="M6,2H8A0,0,0,0,1,8,2V62a0,0,0,0,1,0,0H6a6,6,0,0,1-6-6V8A6,6,0,0,1,6,2Z"/><polygon class="cls-3" points="48 33 48 41.85 28 62 19 62 48 33"/><rect class="cls-4" x="15" y="9" width="26" height="14" rx="1"/><path class="cls-5" d="M37,14H19a1,1,0,0,1,0-2H37A1,1,0,0,1,37,14Z"/><path class="cls-6" d="M35,19H21a1,1,0,0,1,0-2H35A1,1,0,0,1,35,19Z"/><rect class="cls-7" x="51" y="10" width="6" height="46"/><path class="cls-8" d="M63,36a1,1,0,0,1-.71-.29A11.2,11.2,0,0,1,59,27.76V12a2,2,0,0,0-2-2H51a1,1,0,0,1,0-2h6a4,4,0,0,1,4,4V27.76a9.14,9.14,0,0,0,2.71,6.53A1,1,0,0,1,63,36Z"/><path class="cls-9" d="M57,8H51V5a3,3,0,0,1,6,0Z"/><polygon class="cls-10" points="55 60 54 62 53 60 55 60"/><polygon class="cls-11" points="57 56 55 60 53 60 51 56 57 56"/><path class="cls-12" d="M53,37V27a1,1,0,0,1,2,0V37A1,1,0,0,1,53,37Z"/></g></svg>