<svg xmlns="http://www.w3.org/2000/svg" xmlns:xlink="http://www.w3.org/1999/xlink" viewBox="0 0 64 64"><defs><style>.cls-1{fill:url(#linear-gradient);}.cls-2{fill:url(#linear-gradient-2);}.cls-3{fill:#d7f1ff;}.cls-4{fill:url(#linear-gradient-3);}.cls-5{fill:url(#linear-gradient-4);}.cls-6{fill:url(#linear-gradient-5);}</style><linearGradient id="linear-gradient" x1="32" y1="7" x2="50" y2="7" gradientUnits="userSpaceOnUse"><stop offset="0" stop-color="#8cdd79"/><stop offset="1" stop-color="#d4e6b6"/></linearGradient><linearGradient id="linear-gradient-2" x1="14" y1="13" x2="32" y2="13" xlink:href="#linear-gradient"/><linearGradient id="linear-gradient-3" x1="31" y1="29" x2="33" y2="29" gradientUnits="userSpaceOnUse"><stop offset="0" stop-color="#9b756d"/><stop offset="1" stop-color="#bc9388"/></linearGradient><linearGradient id="linear-gradient-4" x1="15.86" y1="57.99" x2="46.22" y2="57.99" gradientUnits="userSpaceOnUse"><stop offset="0" stop-color="#d1a788"/><stop offset="1" stop-color="#f2d3b8"/></linearGradient><linearGradient id="linear-gradient-5" x1="23" y1="24" x2="41" y2="24" gradientUnits="userSpaceOnUse"><stop offset="0" stop-color="#9dd5df"/><stop offset="1" stop-color="#c3e1f5"/></linearGradient></defs><title>Botany</title><g id="Botany"><path class="cls-1" d="M38,13H32A12,12,0,0,1,44,1h6A12,12,0,0,1,38,13Z"/><path class="cls-2" d="M26,19h6A12,12,0,0,0,20,7H14A12,12,0,0,0,26,19Z"/><path class="cls-3" d="M39,26c0-.1.87,0-14,0a5.74,5.74,0,0,1-2.71,4.84,18,18,0,1,0,19.41,0A5.7,5.7,0,0,1,39,26Z"/><path class="cls-4" d="M31,57V1a1,1,0,0,1,2,0V57A1,1,0,0,1,31,57Z"/><path class="cls-5" d="M38,54c-2.7,0-4.86,1.25-9.19-.75A14,14,0,0,0,15.86,54,18,18,0,0,0,46.22,57,12.12,12.12,0,0,0,38,54Z"/><path class="cls-6" d="M39,26H25a2,2,0,0,1,0-4H39a2,2,0,0,1,0,4Z"/></g></svg>