<svg xmlns="http://www.w3.org/2000/svg" xmlns:xlink="http://www.w3.org/1999/xlink" viewBox="0 0 64 64"><defs><style>.cls-1{fill:url(#linear-gradient);}.cls-2{fill:url(#linear-gradient-2);}.cls-3{fill:url(#linear-gradient-3);}.cls-4{fill:url(#linear-gradient-4);}.cls-5{fill:url(#linear-gradient-5);}.cls-6{fill:url(#linear-gradient-6);}.cls-7{fill:url(#linear-gradient-7);}.cls-8{fill:url(#linear-gradient-8);}.cls-9{fill:url(#linear-gradient-9);}</style><linearGradient id="linear-gradient" x1="48" y1="39" x2="16" y2="39" gradientUnits="userSpaceOnUse"><stop offset="0" stop-color="#474f72"/><stop offset="1" stop-color="#878c9f"/></linearGradient><linearGradient id="linear-gradient-2" x1="17" y1="36.5" x2="34" y2="36.5" gradientTransform="matrix(-1, 0, 0, 1, 64, 0)" gradientUnits="userSpaceOnUse"><stop offset="0" stop-color="#7aa8d7"/><stop offset="1" stop-color="#c3d2e7"/></linearGradient><linearGradient id="linear-gradient-3" x1="16.03" y1="60.89" x2="19.86" y2="60.89" gradientTransform="matrix(-1, 0, 0, 1, 64, 0)" gradientUnits="userSpaceOnUse"><stop offset="0" stop-color="#949aaf"/><stop offset="1" stop-color="#c6ccda"/></linearGradient><linearGradient id="linear-gradient-4" x1="17" y1="36.5" x2="34" y2="36.5" gradientUnits="userSpaceOnUse"><stop offset="0" stop-color="#d4d8e1"/><stop offset="1" stop-color="#f3f4f5"/></linearGradient><linearGradient id="linear-gradient-5" x1="30" y1="5" x2="34" y2="5" gradientTransform="matrix(1, 0, 0, 1, 0, 0)" xlink:href="#linear-gradient-3"/><linearGradient id="linear-gradient-6" x1="24" y1="15" x2="40" y2="15" gradientTransform="matrix(1, 0, 0, 1, 0, 0)" xlink:href="#linear-gradient-2"/><linearGradient id="linear-gradient-7" x1="28" y1="15" x2="36" y2="15" xlink:href="#linear-gradient-4"/><linearGradient id="linear-gradient-8" x1="16.03" y1="60.89" x2="19.86" y2="60.89" gradientTransform="matrix(1, 0, 0, 1, 0, 0)" xlink:href="#linear-gradient-3"/><linearGradient id="linear-gradient-9" x1="30" y1="39" x2="34" y2="39" gradientTransform="matrix(1, 0, 0, 1, 0, 0)" xlink:href="#linear-gradient-2"/></defs><title>Compass</title><g id="Compass"><path class="cls-1" d="M47,40H17a1,1,0,0,1,0-2H47a1,1,0,0,1,0,2Z"/><path class="cls-2" d="M36,14,47,59l-1.66-.71a11.52,11.52,0,0,1-6.68-7.94L30,14Z"/><path class="cls-3" d="M47,59l.92,3.34a1.31,1.31,0,1,1-2.53.66l-1.25-5.23Z"/><path class="cls-4" d="M28,14,17,59l1.66-.71a11.52,11.52,0,0,0,6.68-7.94L34,14Z"/><path class="cls-5" d="M34,10H30V2a2,2,0,0,1,4,0Z"/><circle class="cls-6" cx="32" cy="15" r="8"/><circle class="cls-7" cx="32" cy="15" r="4"/><path class="cls-8" d="M17,59l-.92,3.34a1.31,1.31,0,1,0,2.53.66l1.25-5.23Z"/><path class="cls-9" d="M32,42a2,2,0,0,1-2-2V38a2,2,0,0,1,4,0v2A2,2,0,0,1,32,42Z"/></g></svg>