<svg xmlns="http://www.w3.org/2000/svg" xmlns:xlink="http://www.w3.org/1999/xlink" viewBox="0 0 64 64"><defs><style>.cls-1{fill:none;}.cls-2{fill:url(#linear-gradient);}.cls-3{clip-path:url(#clip-path);}.cls-4{fill:#fbcc88;}.cls-5{fill:#fbcc89;}.cls-6{fill:#fbcd8a;}.cls-7{fill:#fbcd8b;}.cls-8{fill:#fbce8c;}.cls-9{fill:#fbce8d;}.cls-10{fill:#fbcf8e;}.cls-11{fill:#fbcf8f;}.cls-12{fill:#fccf90;}.cls-13{fill:#fcd091;}.cls-14{fill:#fcd092;}.cls-15{fill:#fcd193;}.cls-16{fill:#fcd194;}.cls-17{fill:#fcd295;}.cls-18{fill:#fcd296;}.cls-19{fill:#fcd297;}.cls-20{fill:#fcd398;}.cls-21{fill:#fcd399;}.cls-22{fill:#fcd49a;}.cls-23{fill:#fcd49b;}.cls-24{fill:#fcd59c;}.cls-25{fill:#fcd59d;}.cls-26{fill:#fdd59e;}.cls-27{fill:#fdd69f;}.cls-28{fill:#fdd6a0;}.cls-29{fill:#fdd7a1;}.cls-30{fill:#fdd7a2;}.cls-31{fill:#fdd8a3;}.cls-32{fill:#fdd8a4;}.cls-33{fill:#fdd9a6;}.cls-34{fill:#fdd9a7;}.cls-35{fill:#fdd9a8;}.cls-36{fill:#fddaa9;}.cls-37{fill:#fddaaa;}.cls-38{fill:#fddbab;}.cls-39{fill:#fddbac;}.cls-40{fill:#fddcad;}.cls-41{fill:#fedcae;}.cls-42{fill:#fedcaf;}.cls-43{fill:#feddb0;}.cls-44{fill:#feddb1;}.cls-45{fill:#fedeb2;}.cls-46{fill:#fedeb3;}.cls-47{fill:#fedfb4;}.cls-48{fill:#fedfb5;}.cls-49{fill:#fedfb6;}.cls-50{fill:#fee0b7;}.cls-51{fill:#fee0b8;}.cls-52{fill:#fee1b9;}.cls-53{fill:#fee1ba;}.cls-54{fill:#fee2bb;}.cls-55{fill:#ffe2bc;}.cls-56{fill:#ffe2bd;}.cls-57{fill:#ffe3be;}.cls-58{fill:#ffe3bf;}.cls-59{fill:#ffe4c0;}.cls-60{fill:#ffe4c1;}.cls-61{fill:#ffe5c2;}.cls-62{fill:#ffe5c3;}.cls-63{fill:url(#linear-gradient-2);}.cls-64{fill:url(#linear-gradient-3);}.cls-65{fill:url(#linear-gradient-4);}.cls-66{fill:url(#linear-gradient-5);}.cls-67{fill:url(#linear-gradient-6);}</style><linearGradient id="linear-gradient" x1="5" y1="38" x2="54" y2="38" gradientUnits="userSpaceOnUse"><stop offset="0" stop-color="#fbcc88"/><stop offset="1" stop-color="#ffe5c3"/></linearGradient><clipPath id="clip-path"><path class="cls-1" d="M55,62H3V48H55a7,7,0,0,1,0,14Z"/></clipPath><linearGradient id="linear-gradient-2" y1="55" x2="64" y2="55" gradientUnits="userSpaceOnUse"><stop offset="0" stop-color="#7aa8d7"/><stop offset="1" stop-color="#c3d2e7"/></linearGradient><linearGradient id="linear-gradient-3" x1="3" y1="38" x2="57" y2="38" gradientUnits="userSpaceOnUse"><stop offset="0" stop-color="#e9a254"/><stop offset="1" stop-color="#f4bb79"/></linearGradient><linearGradient id="linear-gradient-4" x1="19.79" y1="18.17" x2="44.23" y2="18.17" gradientUnits="userSpaceOnUse"><stop offset="0" stop-color="#da5466"/><stop offset="1" stop-color="#f4929c"/></linearGradient><linearGradient id="linear-gradient-5" x1="32" y1="6" x2="40" y2="6" gradientUnits="userSpaceOnUse"><stop offset="0" stop-color="#8cdd79"/><stop offset="1" stop-color="#d4e6b6"/></linearGradient><linearGradient id="linear-gradient-6" x1="30.21" y1="4.5" x2="33.79" y2="4.5" gradientUnits="userSpaceOnUse"><stop offset="0" stop-color="#d1a788"/><stop offset="1" stop-color="#f2d3b8"/></linearGradient></defs><title>Knowledge</title><g id="Knowledge"><path class="cls-2" d="M11,44H54V32H11a6,6,0,0,0,0,12Z"/><g class="cls-3"><rect class="cls-4" x="3" y="48" width="1" height="14"/><rect class="cls-5" x="4" y="48" width="1" height="14"/><rect class="cls-6" x="5" y="48" width="1" height="14"/><rect class="cls-7" x="6" y="48" width="1" height="14"/><rect class="cls-8" x="7" y="48" width="1" height="14"/><rect class="cls-9" x="8" y="48" width="1" height="14"/><rect class="cls-10" x="9" y="48" width="1" height="14"/><rect class="cls-11" x="10" y="48" width="1" height="14"/><rect class="cls-12" x="11" y="48" width="1" height="14"/><rect class="cls-13" x="12" y="48" width="1" height="14"/><rect class="cls-14" x="13" y="48" width="1" height="14"/><rect class="cls-15" x="14" y="48" width="1" height="14"/><rect class="cls-16" x="15" y="48" width="1" height="14"/><rect class="cls-17" x="16" y="48" width="1" height="14"/><rect class="cls-18" x="17" y="48" width="1" height="14"/><rect class="cls-19" x="18" y="48" width="1" height="14"/><rect class="cls-20" x="19" y="48" width="1" height="14"/><rect class="cls-21" x="20" y="48" width="1" height="14"/><rect class="cls-22" x="21" y="48" width="1" height="14"/><rect class="cls-23" x="22" y="48" width="1" height="14"/><rect class="cls-24" x="23" y="48" width="1" height="14"/><rect class="cls-25" x="24" y="48" width="1" height="14"/><rect class="cls-26" x="25" y="48" width="1" height="14"/><rect class="cls-27" x="26" y="48" width="1" height="14"/><rect class="cls-28" x="27" y="48" width="1" height="14"/><rect class="cls-29" x="28" y="48" width="1" height="14"/><rect class="cls-30" x="29" y="48" width="1" height="14"/><rect class="cls-31" x="30" y="48" width="1" height="14"/><rect class="cls-32" x="31" y="48" width="1" height="14"/><rect class="cls-33" x="32" y="48" width="1" height="14"/><rect class="cls-34" x="33" y="48" width="1" height="14"/><rect class="cls-35" x="34" y="48" width="1" height="14"/><rect class="cls-36" x="35" y="48" width="1" height="14"/><rect class="cls-37" x="36" y="48" width="1" height="14"/><rect class="cls-38" x="37" y="48" width="1" height="14"/><rect class="cls-39" x="38" y="48" width="1" height="14"/><rect class="cls-40" x="39" y="48" width="1" height="14"/><rect class="cls-41" x="40" y="48" width="1" height="14"/><rect class="cls-42" x="41" y="48" width="1" height="14"/><rect class="cls-43" x="42" y="48" width="1" height="14"/><rect class="cls-44" x="43" y="48" width="1" height="14"/><rect class="cls-45" x="44" y="48" width="1" height="14"/><rect class="cls-46" x="45" y="48" width="1" height="14"/><rect class="cls-47" x="46" y="48" width="1" height="14"/><rect class="cls-48" x="47" y="48" width="1" height="14"/><rect class="cls-49" x="48" y="48" width="1" height="14"/><rect class="cls-50" x="49" y="48" width="1" height="14"/><rect class="cls-51" x="50" y="48" width="1" height="14"/><rect class="cls-52" x="51" y="48" width="1" height="14"/><rect class="cls-53" x="52" y="48" width="1" height="14"/><rect class="cls-54" x="53" y="48" width="1" height="14"/><rect class="cls-55" x="54" y="48" width="1" height="14"/><rect class="cls-56" x="55" y="48" width="1" height="14"/><rect class="cls-57" x="56" y="48" width="1" height="14"/><rect class="cls-58" x="57" y="48" width="1" height="14"/><rect class="cls-59" x="58" y="48" width="1" height="14"/><rect class="cls-60" x="59" y="48" width="1" height="14"/><rect class="cls-61" x="60" y="48" width="1" height="14"/><rect class="cls-62" x="61" y="48" width="1" height="14"/></g><path class="cls-63" d="M55,64H2a2,2,0,0,1,0-4H55a5,5,0,0,0,0-10H2a2,2,0,0,1,0-4H55a9,9,0,0,1,0,18Z"/><path class="cls-64" d="M55,46H11a8,8,0,0,1,0-16H55a2,2,0,0,1,0,4H11a4,4,0,0,0,0,8H55a2,2,0,0,1,0,4Z"/><path class="cls-65" d="M44,17.16c-.65,3.22-1.17,6.75-4.27,10.87a5.22,5.22,0,0,1-7.71.53A5,5,0,0,1,28.22,30a4.91,4.91,0,0,1-3.93-2,20.74,20.74,0,0,1-3.78-8.44L20,17.16a12.09,12.09,0,0,1,0-5,7.33,7.33,0,0,1,5-5.47c2.55-.79,4.22,0,6.93.78,2.71-.81,4.38-1.57,6.93-.78C43.36,8,44.89,12.57,44,17.16Z"/><path class="cls-66" d="M37.84,7.57A10.94,10.94,0,0,0,32,8a4,4,0,0,1,4-4h2.2a1.8,1.8,0,1,1-.36,3.57Z"/><path class="cls-67" d="M33.78,2l-.67,6a1.12,1.12,0,0,1-2.22,0l-.67-6a1.79,1.79,0,1,1,3.56,0Z"/></g></svg>