<svg xmlns="http://www.w3.org/2000/svg" xmlns:xlink="http://www.w3.org/1999/xlink" viewBox="0 0 64 64"><defs><style>.cls-1{fill:#8a6762;}.cls-2{fill:url(#linear-gradient);}.cls-3{fill:url(#linear-gradient-2);}.cls-4{fill:url(#linear-gradient-3);}.cls-5{fill:url(#linear-gradient-4);}.cls-6{fill:url(#linear-gradient-5);}.cls-7{fill:url(#linear-gradient-6);}</style><linearGradient id="linear-gradient" x1="5" y1="57" x2="39" y2="57" gradientUnits="userSpaceOnUse"><stop offset="0" stop-color="#9b756d"/><stop offset="1" stop-color="#bc9388"/></linearGradient><linearGradient id="linear-gradient-2" x1="17.94" y1="22.1" x2="21.94" y2="22.1" gradientTransform="translate(-13.96 32.29) rotate(-45)" xlink:href="#linear-gradient"/><linearGradient id="linear-gradient-3" x1="51.94" y1="22.1" x2="55.94" y2="22.1" gradientTransform="translate(-13.96 32.29) rotate(-45)" xlink:href="#linear-gradient"/><linearGradient id="linear-gradient-4" x1="21.94" y1="22.1" x2="51.94" y2="22.1" gradientTransform="translate(-9.15 -0.3)" gradientUnits="userSpaceOnUse"><stop offset="0" stop-color="#d1a788"/><stop offset="1" stop-color="#f2d3b8"/></linearGradient><linearGradient id="linear-gradient-5" x1="27.94" y1="22.1" x2="45.94" y2="22.1" gradientTransform="translate(-9.15 -0.3)" xlink:href="#linear-gradient"/><linearGradient id="linear-gradient-6" x1="31.49" y1="54.58" x2="42.39" y2="54.58" gradientTransform="translate(-13.96 32.29) rotate(-45)" xlink:href="#linear-gradient-4"/></defs><title>Law</title><g id="Law"><path class="cls-1" d="M44,64H0V62a2,2,0,0,1,2-2H42a2,2,0,0,1,2,2Z"/><path class="cls-2" d="M39,60H5V58a4,4,0,0,1,4-4H35a4,4,0,0,1,4,4Z"/><path class="cls-3" d="M25,43a2,2,0,0,1-2.83,0L6.57,27.46A2,2,0,0,1,9.4,24.63L25,40.18A2,2,0,0,1,25,43Z"/><path class="cls-4" d="M49,19a2,2,0,0,1-2.83,0L30.61,3.41A2,2,0,0,1,33.44.59L49,16.14A2,2,0,0,1,49,19Z"/><rect class="cls-5" x="12.78" y="11.8" width="30" height="20" transform="translate(-7.28 26.03) rotate(-45)"/><rect class="cls-6" x="18.78" y="9.8" width="18" height="24" rx="2" transform="translate(-7.28 26.03) rotate(-45)"/><path class="cls-1" d="M32.68,29.7h10a0,0,0,0,1,0,0v2a2,2,0,0,1-2,2h-6a2,2,0,0,1-2-2v-2a0,0,0,0,1,0,0Z" transform="translate(-11.38 35.93) rotate(-45)"/><path class="cls-7" d="M64,52.57a5.45,5.45,0,0,1-9.63,3.49L37,35.23,41.22,31,62,48.38A5.47,5.47,0,0,1,64,52.57Z"/></g></svg>