<svg xmlns="http://www.w3.org/2000/svg" xmlns:xlink="http://www.w3.org/1999/xlink" viewBox="0 0 64 64"><defs><style>.cls-1,.cls-54{fill:none;}.cls-2{fill:url(#linear-gradient);}.cls-3{fill:url(#linear-gradient-2);}.cls-4{fill:#f6b756;}.cls-5{fill:url(#linear-gradient-3);}.cls-6{fill:#dd8b37;}.cls-7{fill:url(#linear-gradient-4);}.cls-8{fill:url(#linear-gradient-5);}.cls-9{fill:url(#linear-gradient-6);}.cls-10{fill:url(#linear-gradient-7);}.cls-11{fill:url(#linear-gradient-8);}.cls-12{fill:#d1aaa1;}.cls-13{fill:url(#linear-gradient-9);}.cls-14{clip-path:url(#clip-path);}.cls-15{fill:#9dd5df;}.cls-16{fill:#9ed5e0;}.cls-17{fill:#9fd6e0;}.cls-18{fill:#a0d6e1;}.cls-19{fill:#a1d6e1;}.cls-20{fill:#a2d7e2;}.cls-21{fill:#a3d7e3;}.cls-22{fill:#a4d7e3;}.cls-23{fill:#a5d8e4;}.cls-24{fill:#a6d8e4;}.cls-25{fill:#a7d8e5;}.cls-26{fill:#a8d9e6;}.cls-27{fill:#a9d9e6;}.cls-28{fill:#aad9e7;}.cls-29{fill:#abdae7;}.cls-30{fill:#acdae8;}.cls-31{fill:#addae9;}.cls-32{fill:#aedbe9;}.cls-33{fill:#afdbea;}.cls-34{fill:#b1dbea;}.cls-35{fill:#b2dbeb;}.cls-36{fill:#b3dceb;}.cls-37{fill:#b4dcec;}.cls-38{fill:#b5dced;}.cls-39{fill:#b6dded;}.cls-40{fill:#b7ddee;}.cls-41{fill:#b8ddee;}.cls-42{fill:#b9deef;}.cls-43{fill:#badef0;}.cls-44{fill:#bbdef0;}.cls-45{fill:#bcdff1;}.cls-46{fill:#bddff1;}.cls-47{fill:#bedff2;}.cls-48{fill:#bfe0f3;}.cls-49{fill:#c0e0f3;}.cls-50{fill:#c1e0f4;}.cls-51{fill:#c2e1f4;}.cls-52{fill:#c3e1f5;}.cls-53{fill:url(#linear-gradient-10);}.cls-54{stroke-linecap:round;stroke-linejoin:round;stroke-width:2px;stroke:url(#linear-gradient-11);}.cls-55{fill:url(#linear-gradient-12);}.cls-56{fill:#cba07a;}.cls-57{fill:url(#linear-gradient-13);}.cls-58{fill:url(#linear-gradient-14);}.cls-59{fill:#cf4055;}</style><linearGradient id="linear-gradient" x1="38" y1="7" x2="44.59" y2="7" gradientUnits="userSpaceOnUse"><stop offset="0" stop-color="#da5466"/><stop offset="1" stop-color="#f4929c"/></linearGradient><linearGradient id="linear-gradient-2" x1="31" y1="5.5" x2="33" y2="5.5" gradientUnits="userSpaceOnUse"><stop offset="0" stop-color="#d4d8e1"/><stop offset="1" stop-color="#f3f4f5"/></linearGradient><linearGradient id="linear-gradient-3" x1="5" y1="42" x2="17" y2="42" gradientUnits="userSpaceOnUse"><stop offset="0" stop-color="#9dd5df"/><stop offset="1" stop-color="#c3e1f5"/></linearGradient><linearGradient id="linear-gradient-4" y1="54" y2="54" xlink:href="#linear-gradient-3"/><linearGradient id="linear-gradient-5" x1="47" x2="59" xlink:href="#linear-gradient-3"/><linearGradient id="linear-gradient-6" x1="47" y1="54" x2="59" y2="54" xlink:href="#linear-gradient-3"/><linearGradient id="linear-gradient-7" x1="2" y1="23" x2="32" y2="23" gradientUnits="userSpaceOnUse"><stop offset="0" stop-color="#9b756d"/><stop offset="1" stop-color="#bc9388"/></linearGradient><linearGradient id="linear-gradient-8" x1="20" y1="40" x2="44" y2="40" gradientUnits="userSpaceOnUse"><stop offset="0" stop-color="#fbcc88"/><stop offset="1" stop-color="#ffe5c3"/></linearGradient><linearGradient id="linear-gradient-9" x1="26" y1="57" x2="38" y2="57" xlink:href="#linear-gradient-7"/><clipPath id="clip-path"><circle class="cls-1" cx="32" cy="37" r="7"/></clipPath><linearGradient id="linear-gradient-10" x1="24" y1="37" x2="40" y2="37" gradientUnits="userSpaceOnUse"><stop offset="0" stop-color="#474f72"/><stop offset="1" stop-color="#878c9f"/></linearGradient><linearGradient id="linear-gradient-11" x1="30" y1="36" x2="33" y2="36" xlink:href="#linear-gradient-10"/><linearGradient id="linear-gradient-12" x1="32" x2="62" xlink:href="#linear-gradient-7"/><linearGradient id="linear-gradient-13" y1="23.02" x2="64" y2="23.02" gradientUnits="userSpaceOnUse"><stop offset="0" stop-color="#d1a788"/><stop offset="1" stop-color="#f2d3b8"/></linearGradient><linearGradient id="linear-gradient-14" x1="33" y1="5" x2="40" y2="5" xlink:href="#linear-gradient"/></defs><title>School</title><g id="School"><path class="cls-2" d="M43.71,7.71l.58.58a1,1,0,0,1-.7,1.71H38V4h5.59a1,1,0,0,1,.7,1.71l-.58.58A1,1,0,0,0,43.71,7.71Z"/><path class="cls-3" d="M32,11a1,1,0,0,1-1-1V1a1,1,0,0,1,2,0v9A1,1,0,0,1,32,11Z"/><rect class="cls-4" x="2" y="31" width="60" height="33"/><rect class="cls-5" x="5" y="39" width="12" height="6"/><path class="cls-6" d="M17,46H5a1,1,0,0,1-1-1V39a1,1,0,0,1,1-1H17a1,1,0,0,1,1,1v6A1,1,0,0,1,17,46ZM6,44H16V40H6Z"/><rect class="cls-7" x="5" y="51" width="12" height="6"/><path class="cls-6" d="M17,58H5a1,1,0,0,1-1-1V51a1,1,0,0,1,1-1H17a1,1,0,0,1,1,1v6A1,1,0,0,1,17,58ZM6,56H16V52H6Z"/><rect class="cls-8" x="47" y="39" width="12" height="6"/><path class="cls-6" d="M59,46H47a1,1,0,0,1-1-1V39a1,1,0,0,1,1-1H59a1,1,0,0,1,1,1v6A1,1,0,0,1,59,46ZM48,44H58V40H48Z"/><rect class="cls-9" x="47" y="51" width="12" height="6"/><path class="cls-6" d="M59,58H47a1,1,0,0,1-1-1V51a1,1,0,0,1,1-1H59a1,1,0,0,1,1,1v6A1,1,0,0,1,59,58ZM48,56H58V52H48Z"/><polygon class="cls-10" points="6 15 32 15 19 31 2 31 6 15"/><polygon class="cls-11" points="44 29.77 44 64 20 64 20 29.77 31.19 16 32.81 16 44 29.77"/><rect class="cls-12" x="27" y="51" width="10" height="13"/><path class="cls-13" d="M37,50H27a1,1,0,0,0-1,1V64h2V52h8V64h2V51A1,1,0,0,0,37,50Z"/><g class="cls-14"><rect class="cls-15" x="25" y="30" height="14"/><rect class="cls-15" x="25" y="30" width="0.37" height="14"/><rect class="cls-16" x="25.37" y="30" width="0.37" height="14"/><rect class="cls-17" x="25.74" y="30" width="0.37" height="14"/><rect class="cls-18" x="26.11" y="30" width="0.37" height="14"/><rect class="cls-19" x="26.47" y="30" width="0.37" height="14"/><rect class="cls-20" x="26.84" y="30" width="0.37" height="14"/><rect class="cls-21" x="27.21" y="30" width="0.37" height="14"/><rect class="cls-22" x="27.58" y="30" width="0.37" height="14"/><rect class="cls-23" x="27.95" y="30" width="0.37" height="14"/><rect class="cls-24" x="28.32" y="30" width="0.37" height="14"/><rect class="cls-25" x="28.68" y="30" width="0.37" height="14"/><rect class="cls-26" x="29.05" y="30" width="0.37" height="14"/><rect class="cls-27" x="29.42" y="30" width="0.37" height="14"/><rect class="cls-28" x="29.79" y="30" width="0.37" height="14"/><rect class="cls-29" x="30.16" y="30" width="0.37" height="14"/><rect class="cls-30" x="30.53" y="30" width="0.37" height="14"/><rect class="cls-31" x="30.89" y="30" width="0.37" height="14"/><rect class="cls-32" x="31.26" y="30" width="0.37" height="14"/><rect class="cls-33" x="31.63" y="30" width="0.37" height="14"/><rect class="cls-34" x="32" y="30" width="0.37" height="14"/><rect class="cls-35" x="32.37" y="30" width="0.37" height="14"/><rect class="cls-36" x="32.74" y="30" width="0.37" height="14"/><rect class="cls-37" x="33.11" y="30" width="0.37" height="14"/><rect class="cls-38" x="33.47" y="30" width="0.37" height="14"/><rect class="cls-39" x="33.84" y="30" width="0.37" height="14"/><rect class="cls-40" x="34.21" y="30" width="0.37" height="14"/><rect class="cls-41" x="34.58" y="30" width="0.37" height="14"/><rect class="cls-42" x="34.95" y="30" width="0.37" height="14"/><rect class="cls-43" x="35.32" y="30" width="0.37" height="14"/><rect class="cls-44" x="35.68" y="30" width="0.37" height="14"/><rect class="cls-45" x="36.05" y="30" width="0.37" height="14"/><rect class="cls-46" x="36.42" y="30" width="0.37" height="14"/><rect class="cls-47" x="36.79" y="30" width="0.37" height="14"/><rect class="cls-48" x="37.16" y="30" width="0.37" height="14"/><rect class="cls-49" x="37.53" y="30" width="0.37" height="14"/><rect class="cls-50" x="37.89" y="30" width="0.37" height="14"/><rect class="cls-51" x="38.26" y="30" width="0.37" height="14"/><rect class="cls-52" x="38.63" y="30" width="0.37" height="14"/></g><path class="cls-53" d="M32,45a8,8,0,1,1,8-8A8,8,0,0,1,32,45Zm0-14a6,6,0,1,0,6,6A6,6,0,0,0,32,31Z"/><polyline class="cls-54" points="32 34 32 37 31 38"/><polygon class="cls-55" points="62 31 45 31 32 15 58 15 62 31"/><polygon class="cls-56" points="39 15 39 23 38.5 23 32 15 25.5 23 25 23 25 15 32 8 39 15"/><path class="cls-57" d="M62,33H45a2,2,0,0,1-1.55-.74L32,18.17,20.55,32.26A2,2,0,0,1,19,33H2a2,2,0,0,1,0-4H18.05l12.4-15.26a2.06,2.06,0,0,1,3.1,0L46,29H62a2,2,0,0,1,0,4Z"/><path class="cls-58" d="M33,2h6a1,1,0,0,1,1,1V8H33Z"/><polygon class="cls-59" points="40 8 38 10 38 8 40 8"/></g></svg>